<?xml version="1.0" standalone="no"?><!DOCTYPE svg PUBLIC "-//W3C//DTD SVG 1.1//EN" "http://www.w3.org/Graphics/SVG/1.1/DTD/svg11.dtd"><svg class="icon" width="200px" height="170.95px" viewBox="0 0 1198 1024" version="1.1" xmlns="http://www.w3.org/2000/svg"><path fill="#ffffff" d="M1094.815897 109.056482h-22.661087a32.575313 32.575313 0 1 0 0 65.858784h22.661087A38.240585 38.240585 0 0 1 1133.056482 212.447692v708.158973a38.240585 38.240585 0 0 1-38.240585 38.240585h-991.422562A38.240585 38.240585 0 0 1 65.860909 920.606665V212.447692a38.240585 38.240585 0 0 1 38.240585-38.240585h22.661087a32.575313 32.575313 0 1 0 0-65.858784h-23.369246A103.39121 103.39121 0 0 0 0.002124 212.447692v708.158973a103.39121 103.39121 0 0 0 103.391211 103.391211h991.422562A103.39121 103.39121 0 0 0 1198.915266 920.606665V212.447692a103.39121 103.39121 0 0 0-104.099369-103.39121z"  /><path fill="#ffffff" d="M410.02617 174.207107h378.865051a32.575313 32.575313 0 0 0 0-65.858784H410.02617a32.575313 32.575313 0 0 0 0 65.858784zM599.104616 441.18304A126.052297 126.052297 0 0 0 439.768847 637.343076l141.631795 141.631795a26.201882 26.201882 0 0 0 36.824266 0l141.631795-141.631795a126.052297 126.052297 0 0 0-160.752087-196.160036z m123.219661 156.503134l-123.219661 123.219661-122.511502-123.219661A70.815897 70.815897 0 0 1 581.400642 495.711281a26.201882 26.201882 0 0 0 36.824266 0 70.815897 70.815897 0 0 1 104.099369 101.974893zM268.394375 283.263589a35.407949 35.407949 0 0 0 35.407949-35.407948v-212.447692a35.407949 35.407949 0 1 0-70.815897 0v212.447692a35.407949 35.407949 0 0 0 35.407948 35.407948zM930.523016 283.263589a35.407949 35.407949 0 0 0 35.407948-35.407948v-212.447692a35.407949 35.407949 0 0 0-70.815897 0v212.447692a35.407949 35.407949 0 0 0 35.407949 35.407948z"  /></svg>