<?xml version="1.0" standalone="no"?><!DOCTYPE svg PUBLIC "-//W3C//DTD SVG 1.1//EN" "http://www.w3.org/Graphics/SVG/1.1/DTD/svg11.dtd"><svg class="icon" width="200px" height="200.00px" viewBox="0 0 1024 1024" version="1.1" xmlns="http://www.w3.org/2000/svg"><path fill="#ffffff" d="M960 384v512c0 35.2-34.88 64.32-69.76 64.32H127.04c-35.2 0-63.68-28.48-63.68-63.68V133.12C63.68 98.24 92.8 64 128 64h512V0H128C57.92 0 0 63.04 0 133.12v763.52C0 967.04 56.96 1024 127.04 1024h762.88c70.08 0 133.76-57.6 133.76-128V384H960zM259.52 578.24l-137.6 278.72c-11.52 31.36 13.44 59.52 44.8 44.8l278.4-137.6c12.16-2.24 23.68-7.04 32.96-16.32L972.8 252.8c24.96-24.96 24.96-65.28 0-89.92l-112.32-112.32a63.36 63.36 0 0 0-89.92 0L275.84 545.28c-9.28 9.28-14.08 20.8-16.32 32.96zM792.96 117.76a31.488 31.488 0 0 1 44.8 0l67.52 67.52c12.48 12.48 12.48 32.64 0 45.12l-67.52 67.52-110.72-114.24 65.92-65.92z m-113.28 113.28l113.28 111.68-359.68 360-112.32-112.32L679.68 231.04z m-302.4 505.6l-171.84 104c-15.68 7.36-29.76-7.68-22.4-22.4l104-172.16 90.24 90.56z" /></svg>